name baseline.mot
datacolumns 19
datarows 36
range 8.67998800000000 8.73829800000000
endheader
time	ground_force1_vx	ground_force1_vy	ground_force1_vz	ground_force1_px	ground_force1_py	ground_force1_pz	ground_force2_vx	ground_force2_vy	ground_force2_vz	ground_force2_px	ground_force2_py	ground_force2_pz	ground_torque1_x	ground_torque1_y	ground_torque1_z	ground_torque2_x	ground_torque2_y	ground_torque2_z	
8.67998800000000	61.75451700000000	749.54188599999998	68.34994000000000	0.15720500000000	0.00000000000000	0.16415900000000	0.00000000000000	0.00000000000000	0.00000000000000	0.00000000000000	0.00000000000000	0.00000000000000	0.00000000000000	-0.92154100000000	0.00000000000000	0.00000000000000	0.00000000000000	0.00000000000000	
8.68163400000000	61.22850300000000	752.80682800000000	68.63111700000000	0.15633700000000	0.00000000000000	0.16415000000000	0.00000000000000	0.00000000000000	0.00000000000000	0.00000000000000	0.00000000000000	0.00000000000000	0.00000000000000	-0.82903600000000	0.00000000000000	0.00000000000000	0.00000000000000	0.00000000000000	
8.68329700000000	60.70031000000000	755.95860700000003	68.91790899999999	0.15546000000000	0.00000000000000	0.16414500000000	0.00000000000000	0.00000000000000	0.00000000000000	0.00000000000000	0.00000000000000	0.00000000000000	0.00000000000000	-0.73462400000000	0.00000000000000	0.00000000000000	0.00000000000000	0.00000000000000	
8.68497100000000	60.16984000000000	758.99379899999997	69.20917700000000	0.15457300000000	0.00000000000000	0.16414200000000	0.00000000000000	0.00000000000000	0.00000000000000	0.00000000000000	0.00000000000000	0.00000000000000	0.00000000000000	-0.63860900000000	0.00000000000000	0.00000000000000	0.00000000000000	0.00000000000000	
8.68663700000000	59.63698900000000	761.90913799999998	69.50372500000000	0.15367600000000	0.00000000000000	0.16414100000000	0.00000000000000	0.00000000000000	0.00000000000000	0.00000000000000	0.00000000000000	0.00000000000000	0.00000000000000	-0.54130200000000	0.00000000000000	0.00000000000000	0.00000000000000	0.00000000000000	
8.68830000000000	59.10164800000000	764.70152800000005	69.80031300000000	0.15276900000000	0.00000000000000	0.16414400000000	0.00000000000000	0.00000000000000	0.00000000000000	0.00000000000000	0.00000000000000	0.00000000000000	0.00000000000000	-0.44301700000000	0.00000000000000	0.00000000000000	0.00000000000000	0.00000000000000	
8.68996800000000	58.56371200000000	767.36805800000002	70.09766200000000	0.15185100000000	0.00000000000000	0.16414800000000	0.00000000000000	0.00000000000000	0.00000000000000	0.00000000000000	0.00000000000000	0.00000000000000	0.00000000000000	-0.34407300000000	0.00000000000000	0.00000000000000	0.00000000000000	0.00000000000000	
8.69163700000000	58.02307500000000	769.90600700000005	70.39446200000000	0.15092200000000	0.00000000000000	0.16415600000000	0.00000000000000	0.00000000000000	0.00000000000000	0.00000000000000	0.00000000000000	0.00000000000000	0.00000000000000	-0.24479400000000	0.00000000000000	0.00000000000000	0.00000000000000	0.00000000000000	
8.69330400000000	57.47963800000000	772.31286200000000	70.68938400000000	0.14998100000000	0.00000000000000	0.16416500000000	0.00000000000000	0.00000000000000	0.00000000000000	0.00000000000000	0.00000000000000	0.00000000000000	0.00000000000000	-0.14549700000000	0.00000000000000	0.00000000000000	0.00000000000000	0.00000000000000	
8.69499200000000	56.93331200000000	774.58632599999999	70.98108400000000	0.14903000000000	0.00000000000000	0.16417600000000	0.00000000000000	0.00000000000000	0.00000000000000	0.00000000000000	0.00000000000000	0.00000000000000	0.00000000000000	-0.04650300000000	0.00000000000000	0.00000000000000	0.00000000000000	0.00000000000000	
8.69663700000000	56.38401600000000	776.72432600000002	71.26821500000000	0.14806800000000	0.00000000000000	0.16419000000000	0.00000000000000	0.00000000000000	0.00000000000000	0.00000000000000	0.00000000000000	0.00000000000000	0.00000000000000	0.05187300000000	0.00000000000000	0.00000000000000	0.00000000000000	0.00000000000000	
8.69829900000000	55.83168300000000	778.72502399999996	71.54943299999999	0.14709500000000	0.00000000000000	0.16420500000000	0.00000000000000	0.00000000000000	0.00000000000000	0.00000000000000	0.00000000000000	0.00000000000000	0.00000000000000	0.14932500000000	0.00000000000000	0.00000000000000	0.00000000000000	0.00000000000000	
8.69996500000000	55.27626000000000	780.58682299999998	71.82340600000001	0.14611000000000	0.00000000000000	0.16422200000000	0.00000000000000	0.00000000000000	0.00000000000000	0.00000000000000	0.00000000000000	0.00000000000000	0.00000000000000	0.24554900000000	0.00000000000000	0.00000000000000	0.00000000000000	0.00000000000000	
8.70163700000000	54.71770800000000	782.30837799999995	72.08882000000000	0.14511600000000	0.00000000000000	0.16424000000000	0.00000000000000	0.00000000000000	0.00000000000000	0.00000000000000	0.00000000000000	0.00000000000000	0.00000000000000	0.34025500000000	0.00000000000000	0.00000000000000	0.00000000000000	0.00000000000000	
8.70329700000000	54.15600800000000	783.88859900000000	72.34438900000001	0.14411100000000	0.00000000000000	0.16426000000000	0.00000000000000	0.00000000000000	0.00000000000000	0.00000000000000	0.00000000000000	0.00000000000000	0.00000000000000	0.43316100000000	0.00000000000000	0.00000000000000	0.00000000000000	0.00000000000000	
8.70499100000000	53.59115800000000	785.32665799999995	72.58886300000000	0.14309600000000	0.00000000000000	0.16428100000000	0.00000000000000	0.00000000000000	0.00000000000000	0.00000000000000	0.00000000000000	0.00000000000000	0.00000000000000	0.52399900000000	0.00000000000000	0.00000000000000	0.00000000000000	0.00000000000000	
8.70663500000000	53.02317500000000	786.62199399999997	72.82103100000000	0.14207100000000	0.00000000000000	0.16430400000000	0.00000000000000	0.00000000000000	0.00000000000000	0.00000000000000	0.00000000000000	0.00000000000000	0.00000000000000	0.61251300000000	0.00000000000000	0.00000000000000	0.00000000000000	0.00000000000000	
8.70830400000000	52.45209600000000	787.77431700000000	73.03973100000000	0.14103800000000	0.00000000000000	0.16432700000000	0.00000000000000	0.00000000000000	0.00000000000000	0.00000000000000	0.00000000000000	0.00000000000000	0.00000000000000	0.69846300000000	0.00000000000000	0.00000000000000	0.00000000000000	0.00000000000000	
8.70997300000000	51.87797900000000	788.78361099999995	73.24385400000000	0.13999600000000	0.00000000000000	0.16435100000000	0.00000000000000	0.00000000000000	0.00000000000000	0.00000000000000	0.00000000000000	0.00000000000000	0.00000000000000	0.78162500000000	0.00000000000000	0.00000000000000	0.00000000000000	0.00000000000000	
8.71163600000000	51.30090100000000	789.65013499999998	73.43235300000001	0.13894600000000	0.00000000000000	0.16437600000000	0.00000000000000	0.00000000000000	0.00000000000000	0.00000000000000	0.00000000000000	0.00000000000000	0.00000000000000	0.86179100000000	0.00000000000000	0.00000000000000	0.00000000000000	0.00000000000000	
8.71330200000000	50.72096200000000	790.37442599999997	73.60424600000000	0.13788800000000	0.00000000000000	0.16440100000000	0.00000000000000	0.00000000000000	0.00000000000000	0.00000000000000	0.00000000000000	0.00000000000000	0.00000000000000	0.93877200000000	0.00000000000000	0.00000000000000	0.00000000000000	0.00000000000000	
8.71496500000000	50.13827900000000	790.95729700000004	73.75861900000000	0.13682400000000	0.00000000000000	0.16442700000000	0.00000000000000	0.00000000000000	0.00000000000000	0.00000000000000	0.00000000000000	0.00000000000000	0.00000000000000	1.01239800000000	0.00000000000000	0.00000000000000	0.00000000000000	0.00000000000000	
8.71662900000000	49.55299200000000	791.39984100000004	73.89463499999999	0.13575400000000	0.00000000000000	0.16445300000000	0.00000000000000	0.00000000000000	0.00000000000000	0.00000000000000	0.00000000000000	0.00000000000000	0.00000000000000	1.08251500000000	0.00000000000000	0.00000000000000	0.00000000000000	0.00000000000000	
8.71830200000000	48.96525800000000	791.70342100000005	74.01153499999999	0.13467800000000	0.00000000000000	0.16448000000000	0.00000000000000	0.00000000000000	0.00000000000000	0.00000000000000	0.00000000000000	0.00000000000000	0.00000000000000	1.14899100000000	0.00000000000000	0.00000000000000	0.00000000000000	0.00000000000000	
8.71997800000000	48.37525500000000	791.86967900000002	74.10864200000000	0.13359800000000	0.00000000000000	0.16450600000000	0.00000000000000	0.00000000000000	0.00000000000000	0.00000000000000	0.00000000000000	0.00000000000000	0.00000000000000	1.21171300000000	0.00000000000000	0.00000000000000	0.00000000000000	0.00000000000000	
8.72163100000000	47.78317800000000	791.90052000000003	74.18536400000001	0.13251500000000	0.00000000000000	0.16453200000000	0.00000000000000	0.00000000000000	0.00000000000000	0.00000000000000	0.00000000000000	0.00000000000000	0.00000000000000	1.27058700000000	0.00000000000000	0.00000000000000	0.00000000000000	0.00000000000000	
8.72330400000000	47.18923700000000	791.79811800000004	74.24119600000000	0.13142800000000	0.00000000000000	0.16455800000000	0.00000000000000	0.00000000000000	0.00000000000000	0.00000000000000	0.00000000000000	0.00000000000000	0.00000000000000	1.32554000000000	0.00000000000000	0.00000000000000	0.00000000000000	0.00000000000000	
8.72498400000000	46.59366100000000	791.56490499999995	74.27572100000000	0.13033900000000	0.00000000000000	0.16458400000000	0.00000000000000	0.00000000000000	0.00000000000000	0.00000000000000	0.00000000000000	0.00000000000000	0.00000000000000	1.37651700000000	0.00000000000000	0.00000000000000	0.00000000000000	0.00000000000000	
8.72663700000000	45.99669000000000	791.20356800000002	74.28861400000000	0.12924800000000	0.00000000000000	0.16460900000000	0.00000000000000	0.00000000000000	0.00000000000000	0.00000000000000	0.00000000000000	0.00000000000000	0.00000000000000	1.42348200000000	0.00000000000000	0.00000000000000	0.00000000000000	0.00000000000000	
8.72830400000000	45.39857900000000	790.71703900000000	74.27963800000001	0.12815700000000	0.00000000000000	0.16463400000000	0.00000000000000	0.00000000000000	0.00000000000000	0.00000000000000	0.00000000000000	0.00000000000000	0.00000000000000	1.46641900000000	0.00000000000000	0.00000000000000	0.00000000000000	0.00000000000000	
8.72997800000000	44.79959300000000	790.10849199999996	74.24864800000000	0.12706600000000	0.00000000000000	0.16465800000000	0.00000000000000	0.00000000000000	0.00000000000000	0.00000000000000	0.00000000000000	0.00000000000000	0.00000000000000	1.50533000000000	0.00000000000000	0.00000000000000	0.00000000000000	0.00000000000000	
8.73162900000000	44.20000900000000	789.38132700000006	74.19559099999999	0.12597600000000	0.00000000000000	0.16468200000000	0.00000000000000	0.00000000000000	0.00000000000000	0.00000000000000	0.00000000000000	0.00000000000000	0.00000000000000	1.54023400000000	0.00000000000000	0.00000000000000	0.00000000000000	0.00000000000000	
8.73330200000000	43.60010900000000	788.53916900000002	74.12050200000000	0.12488700000000	0.00000000000000	0.16470400000000	0.00000000000000	0.00000000000000	0.00000000000000	0.00000000000000	0.00000000000000	0.00000000000000	0.00000000000000	1.57116800000000	0.00000000000000	0.00000000000000	0.00000000000000	0.00000000000000	
8.73496900000000	43.00018500000000	787.58585400000004	74.02350300000001	0.12380100000000	0.00000000000000	0.16472600000000	0.00000000000000	0.00000000000000	0.00000000000000	0.00000000000000	0.00000000000000	0.00000000000000	0.00000000000000	1.59818500000000	0.00000000000000	0.00000000000000	0.00000000000000	0.00000000000000	
8.73663300000000	42.40053100000000	786.52541699999995	73.90480300000000	0.12271800000000	0.00000000000000	0.16474600000000	0.00000000000000	0.00000000000000	0.00000000000000	0.00000000000000	0.00000000000000	0.00000000000000	0.00000000000000	1.62135300000000	0.00000000000000	0.00000000000000	0.00000000000000	0.00000000000000	
8.73829800000000	41.80144600000000	785.36208199999999	73.76469500000000	0.12163900000000	0.00000000000000	0.16476600000000	0.00000000000000	0.00000000000000	0.00000000000000	0.00000000000000	0.00000000000000	0.00000000000000	0.00000000000000	1.64075500000000	0.00000000000000	0.00000000000000	0.00000000000000	0.00000000000000	
